Coordinates
version=1
nRows=8
nColumns=34
inDegrees=yes

Units are S.I. units (second, meters, Newtons, ...)
Angles are in degrees.

endheader
time	pelvis_tilt	pelvis_list	pelvis_rotation	pelvis_tx	pelvis_ty	pelvis_tz	hip_flexion_r	hip_adduction_r	hip_rotation_r	knee_angle_r	ankle_angle_r	subtalar_angle_r	mtp_angle_r	hip_flexion_l	hip_adduction_l	hip_rotation_l	knee_angle_l	socket_flexion	socket_adduction	socket_rotation	socket_tx	socket_ty	socket_tz	pros_ankle_rx	pros_ankle_ry	pros_ankle_rz	pros_ankle_tx	pros_ankle_ty	pros_ankle_tz	foot_flex	lumbar_extension	lumbar_bending	lumbar_rotation
      0.60416667	     -4.11770904	     -1.66999106	     12.15218317	      0.03614094	      1.02298080	      0.31627458	     25.36728386	     -1.59746037	    -13.42907586	      0.68694886	     12.30063276	      8.13412143	     11.63665461	     -8.14101477	     -1.08196706	     12.04224549	    -17.80377731	      0.00000000	      0.00000000	      0.00000000	      0.00000000	      0.00000000	      0.00000000	      0.00000000	      0.00000000	      0.00000000	      0.00000000	      0.00000000	      0.00000000	     13.17963102	     -9.36345928	     -2.85848554	    -39.67955007
      0.60833333	     -4.08461456	     -1.73395590	     12.31189149	      0.04238813	      1.02206590	      0.31637565	     25.37567326	     -1.53695649	    -13.15546065	      0.40069250	     11.97960815	      8.27454257	     11.66245633	     -8.25462764	     -1.23297911	     12.11179797	    -18.27557603	      0.00000000	      0.00000000	      0.00000000	      0.00000000	      0.00000000	      0.00000000	      0.00000000	      0.00000000	      0.00000000	      0.00000000	      0.00000000	      0.00000000	     13.26154183	     -9.38916282	     -2.66052114	    -39.70543626
      0.61250000	     -4.02507340	     -1.81124873	     12.47285076	      0.04879946	      1.02126447	      0.31647432	     25.32433172	     -1.45054968	    -12.92649732	      0.09745455	     11.73492835	      8.35727364	     11.67470068	     -8.42312673	     -1.41254991	     12.20484221	    -18.69227573	      0.00000000	      0.00000000	      0.00000000	      0.00000000	      0.00000000	      0.00000000	      0.00000000	      0.00000000	      0.00000000	      0.00000000	      0.00000000	      0.00000000	     13.20578510	     -9.29769844	     -2.57957064	    -39.72190129
      0.61666667	     -3.94865452	     -1.92737349	     12.61335805	      0.05488623	      1.02043207	      0.31650605	     25.43446021	     -1.36461882	    -12.77950350	     -0.47477034	     10.98622197	      8.43928617	     11.76666813	     -8.48921767	     -1.60253754	     12.21735690	    -19.29686780	      0.00000000	      0.00000000	      0.00000000	      0.00000000	      0.00000000	      0.00000000	      0.00000000	      0.00000000	      0.00000000	      0.00000000	      0.00000000	      0.00000000	     13.30862890	     -9.42989420	     -2.20354822	    -39.77507214
      0.62083333	     -3.85875203	     -2.04459097	     12.75021553	      0.06117963	      1.01967843	      0.31657113	     25.47760112	     -1.25589256	    -12.63743744	     -1.02952028	     10.40805988	      8.48655533	     11.90191219	     -8.59150873	     -1.80517643	     12.25317149	    -19.87660758	      0.00000000	      0.00000000	      0.00000000	      0.00000000	      0.00000000	      0.00000000	      0.00000000	      0.00000000	      0.00000000	      0.00000000	      0.00000000	      0.00000000	     13.32025149	     -9.45823869	     -1.92636530	    -39.79667958
      0.62500000	     -3.85157926	     -2.16094628	     12.89345486	      0.06747986	      1.01879683	      0.31660630	     25.89943439	     -1.27070154	    -12.97662509	     -2.11216041	      9.70185837	      9.06163943	     15.34586868	     -8.56352033	     -1.97874680	     12.29694800	    -20.52896594	      0.00000000	      0.00000000	      0.00000000	      0.00000000	      0.00000000	      0.00000000	      0.00000000	      0.00000000	      0.00000000	      0.00000000	      0.00000000	      0.00000000	     13.30760723	     -9.38015102	     -1.69483492	    -39.79188333
      0.62916667	     -3.71615051	     -2.29733080	     12.99227246	      0.07377327	      1.01818411	      0.31671041	     25.89452096	     -1.11877161	    -12.80850897	     -2.71952916	      9.10381714	      9.09266301	     15.32976423	     -8.65736959	     -2.19382903	     12.26497680	    -21.20156143	      0.00000000	      0.00000000	      0.00000000	      0.00000000	      0.00000000	      0.00000000	      0.00000000	      0.00000000	      0.00000000	      0.00000000	      0.00000000	      0.00000000	     13.27864622	     -9.41996243	     -1.36651371	    -39.78902216
      0.63333333	     -3.56901382	     -2.46601570	     13.06829634	      0.08004919	      1.01761382	      0.31683741	     25.93839663	     -0.93680670	    -12.72370303	     -3.44116437	      8.42460547	      9.06144141	     15.33558069	     -8.72193382	     -2.43545127	     12.20811768	    -21.93639368	      0.00000000	      0.00000000	      0.00000000	      0.00000000	      0.00000000	      0.00000000	      0.00000000	      0.00000000	      0.00000000	      0.00000000	      0.00000000	      0.00000000	     13.21988493	     -9.51473810	     -1.01431270	    -39.74555921
